<svg width="24" height="24" viewBox="0 0 24 24" fill="none" xmlns="http://www.w3.org/2000/svg">
  <path d="M19.875 15.375c0 .738-.492 1.371-1.125 1.617v2.32h.281c.457 0 .844.387.844.844a.833.833 0 0 1-.844.844H6.938a2.777 2.777 0 0 1-2.813-2.812V5.813A2.8 2.8 0 0 1 6.938 3h11.25a1.71 1.71 0 0 1 1.687 1.688zm-2.812 3.938v-2.25H6.938c-.633 0-1.125.527-1.125 1.125a1.11 1.11 0 0 0 1.125 1.125zm1.125-3.938V4.688H6.938c-.633 0-1.125.527-1.125 1.125v9.808c.316-.14.703-.246 1.125-.246zm-8.72-6.75c-.491 0-.843-.352-.843-.844 0-.457.352-.843.844-.843h6.187c.457 0 .844.386.844.843a.833.833 0 0 1-.844.844zm0 2.813c-.491 0-.843-.352-.843-.844 0-.457.352-.844.844-.844h6.187c.457 0 .844.387.844.844a.833.833 0 0 1-.844.844z" fill="currentColor"/>
</svg>
