<svg viewBox="0 0 162 32" fill="none" xmlns="http://www.w3.org/2000/svg">
  <path fill-rule="evenodd" clip-rule="evenodd" d="M18.945.164c-.39.076-.998.25-1.357.38-.358.13-1.118.467-1.682.75-.565.281-1.542.857-2.171 1.28a23 23 0 0 0-2.171 1.683 24 24 0 0 0-1.737 1.715c-.391.434-1.086 1.313-1.563 1.943a33 33 0 0 0-1.585 2.388 38 38 0 0 0-1.368 2.551 45 45 0 0 0-1.096 2.551 23 23 0 0 0-.76 2.334c-.207.847-.283 1.465-.326 2.822-.043 1.14-.01 2.02.076 2.551.076.445.25 1.13.38 1.52s.38.977.543 1.303.51.868.76 1.194.694.792.987 1.03c.293.24.901.641 1.346.891.446.26 1.553.76 2.443 1.107.9.358 2.214.825 2.93 1.042s1.89.489 2.606.62c1.075.184 1.607.205 3.04.162 1.27-.043 1.975-.109 2.605-.282.477-.12 1.28-.434 1.78-.684a6.4 6.4 0 0 0 1.53-1.064c.337-.337.75-.88.923-1.248.272-.554.326-.804.359-1.683.032-.825-.011-1.237-.228-2.062a16 16 0 0 0-.717-2.085 20 20 0 0 0-1.01-2.062 23 23 0 0 0-1.389-2.095 23 23 0 0 0-1.682-1.965 26 26 0 0 0-1.759-1.574c-.478-.38-.955-.695-1.053-.695s-.174.022-.174.055c0 .032.304.347.663.705.369.358.933.966 1.248 1.357.315.39.586.75.586.814 0 .065-.5-.423-1.118-1.085s-1.39-1.4-1.715-1.65-.88-.63-1.238-.847a10.5 10.5 0 0 0-1.52-.673c-.683-.217-1.096-.282-1.953-.282-.717-.011-1.292.054-1.683.173a5 5 0 0 0-1.107.51l-.521.326c-.174-.543-.217-.879-.217-1.085 0-.207.097-.695.206-1.086.12-.39.456-1.075.76-1.52.293-.445.868-1.172 1.27-1.617a16 16 0 0 1 1.617-1.455 14 14 0 0 1 1.824-1.118 15 15 0 0 1 1.9-.77c.857-.26 1.107-.293 2.735-.293 1.39-.011 1.987.032 2.66.195.477.108 1.259.336 1.737.51.477.174 1.107.5 1.4.727.304.218.695.608.868.858.185.25.445.64.587.868.13.228.39.5.564.608.185.098.456.185.608.185.163 0 .402-.13.597-.326.25-.26.315-.423.315-.781 0-.315-.109-.652-.315-1.01-.163-.293-.619-.825-.999-1.172a8.3 8.3 0 0 0-1.509-1.042 10 10 0 0 0-1.52-.64c-.39-.12-1.172-.272-1.736-.348a11.5 11.5 0 0 0-2.226-.076 18 18 0 0 0-2.116.282c-.51.12-1.292.347-1.737.5a18 18 0 0 0-1.52.65c-.39.196-1.15.652-1.682 1.01a17 17 0 0 0-1.89 1.51 17.5 17.5 0 0 0-1.682 1.877 18 18 0 0 0-1.259 1.9c-.413.727-.5.825-.521.597-.022-.152.12-.738.304-1.303.184-.564.532-1.4.77-1.845.24-.445.695-1.15 1.021-1.574.315-.413.934-1.097 1.368-1.51a14 14 0 0 1 1.726-1.356c.51-.326 1.324-.782 1.823-1.01a18 18 0 0 1 1.943-.727c.587-.163 1.4-.369 1.824-.434.424-.076 1.325-.174 2.008-.228.967-.076 1.292-.141 1.444-.293.109-.109.196-.337.196-.521a.8.8 0 0 0-.25-.554 2.4 2.4 0 0 0-.5-.358c-.13-.065-.597-.12-1.03-.109-.424 0-1.097.076-1.488.163m-7.837 15.947a2.5 2.5 0 0 0-.88.52c-.228.218-.401.544-.488.891a2.6 2.6 0 0 0-.065.977c.032.239.173.651.293.923.13.271.5.76.836 1.096.38.39.9.76 1.465 1.042.478.239 1.238.576 1.683.728.445.162 1.617.542 2.605.846 1.227.38 1.997.554 2.42.565.565.01.663-.022.902-.283.152-.184.26-.445.26-.63a2.2 2.2 0 0 0-.173-.727c-.087-.228-.38-.705-.63-1.063-.26-.358-1.096-1.292-1.867-2.084-.858-.88-1.694-1.607-2.16-1.911a11 11 0 0 0-1.411-.727 5.5 5.5 0 0 0-1.466-.283c-.532-.032-.988.011-1.335.12z" fill="#181D27"/>
  <path d="M2.662 15.047c-.38.467-.868 1.161-1.096 1.552-.228.39-.543 1.042-.706 1.465s-.38 1.097-.488 1.52c-.109.424-.25 1.27-.315 1.9a11 11 0 0 0 0 2.225c.065.597.206 1.455.326 1.9.108.445.336 1.129.499 1.52.174.39.412.89.554 1.118.14.217.434.608.65.846.229.25.707.663 1.065.912.358.26.944.608 1.302.793.359.173 1.13.477 1.705.662.586.184 1.335.369 1.671.423.435.055.63.044.728-.065q.13-.141.021-.228c-.065-.054-.553-.325-1.085-.608a18 18 0 0 1-1.78-1.074A12 12 0 0 1 4.3 28.757a9.3 9.3 0 0 1-1.053-1.248 11 11 0 0 1-.662-1.086c-.13-.239-.325-.749-.445-1.14s-.282-1.14-.347-1.682c-.098-.75-.109-1.249-.011-2.171.076-.652.228-1.661.358-2.226.12-.564.391-1.52.597-2.116.206-.598.532-1.379.706-1.737s.304-.75.282-.869c-.022-.12-.108-.228-.217-.25s-.413.261-.847.815m45.938 10.217c-4.8 0-8.064-3.576-8.064-8.856s3.312-8.88 8.16-8.88c3.696 0 6.6 2.232 7.296 5.64h-1.848c-.72-2.472-2.832-3.984-5.52-3.984-3.768 0-6.288 2.88-6.288 7.224 0 4.32 2.52 7.2 6.288 7.2 2.712 0 4.872-1.464 5.616-3.768h1.848c-.792 3.24-3.792 5.424-7.488 5.424m9.3-6.072c0-3.552 2.496-6.12 5.904-6.12s5.904 2.568 5.904 6.12c0 3.528-2.496 6.096-5.904 6.096S57.9 22.72 57.9 19.192m1.68-.024c0 2.736 1.728 4.632 4.224 4.632 2.472 0 4.224-1.896 4.224-4.632 0-2.688-1.752-4.608-4.224-4.608-2.496 0-4.224 1.92-4.224 4.608m17.337 6.12c-3.384 0-5.376-2.592-5.376-6.072 0-3.504 1.992-6.144 5.448-6.144 1.92 0 3.456.84 4.272 2.52V7.504h1.656V25h-1.44l-.168-2.376c-.816 1.8-2.448 2.664-4.392 2.664m.288-1.512c2.544 0 4.032-1.92 4.032-4.608 0-2.664-1.488-4.608-4.032-4.608-2.52 0-3.984 1.944-3.984 4.608 0 2.688 1.464 4.608 3.984 4.608m14.04 1.512c-3.409 0-5.689-2.448-5.689-6.096 0-3.624 2.256-6.12 5.568-6.12 3.144 0 5.28 2.232 5.28 5.52v.816h-9.24c.12 2.832 1.608 4.464 4.104 4.464 1.896 0 3.12-.816 3.552-2.352h1.584c-.624 2.448-2.424 3.768-5.16 3.768m-.12-10.8c-2.185 0-3.625 1.44-3.913 3.72h7.536c0-2.232-1.44-3.72-3.624-3.72M99.058 25h-1.752l6.312-17.184h2.136L112.139 25h-1.8l-1.68-4.56h-7.92zm5.4-14.76-3.192 8.688h6.84l-3.216-8.688c-.072-.24-.192-.528-.216-.696a4.3 4.3 0 0 1-.216.696M115.824 25h-1.656V13.384h1.44l.24 2.016c.768-1.488 2.304-2.328 3.984-2.328 3.192 0 4.512 1.896 4.512 4.824V25h-1.656v-6.744c0-2.712-1.224-3.672-3.144-3.672-2.376 0-3.72 1.728-3.72 4.344zm14.485 0h-1.632V14.776h-2.328v-1.392h2.328V9.712h1.632v3.672h2.328v1.392h-2.328zm11.5 0h-1.752l6.312-17.184h2.136L154.889 25h-1.8l-1.68-4.56h-7.92zm5.4-14.76-3.192 8.688h6.84l-3.216-8.688c-.072-.24-.192-.528-.216-.696a4.3 4.3 0 0 1-.216.696m11.797-2.424V25h-1.728V7.816z" fill="#181D27"/>
</svg>
